<svg width="256" height="256" viewBox="0 0 256 256" fill="none" xmlns="http://www.w3.org/2000/svg">
  <title>Node Enterprise Deploy Kit logo</title>
  <defs>
    <linearGradient id="border" x1="36" y1="34" x2="220" y2="222" gradientUnits="userSpaceOnUse">
      <stop stop-color="#6EE7B7"/>
      <stop offset="0.5" stop-color="#22C55E"/>
      <stop offset="1" stop-color="#38BDF8"/>
    </linearGradient>
    <linearGradient id="panel" x1="76" y1="76" x2="180" y2="178" gradientUnits="userSpaceOnUse">
      <stop stop-color="#13251F"/>
      <stop offset="1" stop-color="#0F1F33"/>
    </linearGradient>
    <linearGradient id="deploy" x1="50" y1="190" x2="206" y2="190" gradientUnits="userSpaceOnUse">
      <stop stop-color="#22C55E"/>
      <stop offset="1" stop-color="#38BDF8"/>
    </linearGradient>
  </defs>

  <path d="M128 18L222 72V184L128 238L34 184V72L128 18Z" fill="#08111F" stroke="url(#border)" stroke-width="10" stroke-linejoin="round"/>
  <path d="M128 40L168 63V109L128 132L88 109V63L128 40Z" fill="#102A22" stroke="#6EE7B7" stroke-width="6" stroke-linejoin="round"/>
  <path d="M111 103V69H120L137 91V69H146V103H137L120 81V103H111Z" fill="#EAFDF4"/>

  <rect x="72" y="116" width="112" height="62" rx="10" fill="url(#panel)" stroke="#38BDF8" stroke-width="5"/>
  <rect x="88" y="130" width="80" height="10" rx="5" fill="#1F3B4D"/>
  <rect x="88" y="154" width="80" height="10" rx="5" fill="#1F3B4D"/>
  <circle cx="98" cy="135" r="4" fill="#22C55E"/>
  <circle cx="98" cy="159" r="4" fill="#38BDF8"/>
  <path d="M118 135H158" stroke="#CFFAFE" stroke-width="4" stroke-linecap="round"/>
  <path d="M118 159H148" stroke="#CFFAFE" stroke-width="4" stroke-linecap="round"/>

  <path d="M61 192C84 214 172 214 195 192" stroke="url(#deploy)" stroke-width="8" stroke-linecap="round"/>
  <path d="M185 180L202 190L185 200" stroke="#38BDF8" stroke-width="8" stroke-linecap="round" stroke-linejoin="round"/>

  <rect x="47" y="174" width="30" height="30" rx="7" fill="#0F172A" stroke="#6EE7B7" stroke-width="5"/>
  <path d="M56 189H68" stroke="#6EE7B7" stroke-width="5" stroke-linecap="round"/>
  <path d="M62 183V195" stroke="#6EE7B7" stroke-width="5" stroke-linecap="round"/>

  <rect x="179" y="174" width="30" height="30" rx="7" fill="#0F172A" stroke="#38BDF8" stroke-width="5"/>
  <path d="M188 190L193 195L201 184" stroke="#38BDF8" stroke-width="5" stroke-linecap="round" stroke-linejoin="round"/>

  <path d="M128 190L128 211" stroke="#22C55E" stroke-width="6" stroke-linecap="round"/>
  <path d="M118 204L128 214L138 204" stroke="#22C55E" stroke-width="6" stroke-linecap="round" stroke-linejoin="round"/>
</svg>
